<?xml version="1.0" encoding="UTF-8" standalone="no"?>
            <!DOCTYPE svg PUBLIC "-//W3C//DTD SVG 1.1//EN" "http://www.w3.org/Graphics/SVG/1.1/DTD/svg11.dtd">
            <svg width="1024" height="1024" viewBox="-50 -50 1124 1124" xmlns="http://www.w3.org/2000/svg">
                <g opacity="0.8">
                    <polyline points="98.54393,372.36365 98.54393,403.39392 102.82845,465.45453 68.5523,620.6061 42.84519,310.30304 68.5523,403.39392 77.12134,434.42426 111.39749,186.18182 42.84519,62.060608 0,124.121216 72.83682,155.15149 81.40586,0 85.69038,124.121216 55.698746,155.15149 42.84519,124.121216 34.27615,62.060608 29.991632,31.030273 25.707113,0 595.5481,279.2727 604.1171,279.2727 604.1171,279.2727 608.4017,279.2727 612.6862,279.2727 612.6862,310.30304 616.9707,310.30304 616.9707,310.30304 621.25525,310.30304 621.25525,310.30304 625.53973,310.30304 625.53973,310.30304 595.5481,310.30304 595.5481,310.30304 595.5481,310.30304 599.83264,341.3333 604.1171,341.3333 604.1171,341.3333 612.6862,341.3333 612.6862,372.36365 621.25525,372.36365 621.25525,372.36365 625.53973,403.39392 629.8243,403.39392 634.10876,403.39392 634.10876,403.39392 638.3933,403.39392 638.3933,403.39392 642.6778,434.42426 642.6778,434.42426 646.96234,434.42426 646.96234,434.42426 651.2469,465.45453 651.2469,465.45453 651.2469,465.45453 655.5314,465.45453 655.5314,465.45453 659.8159,496.48486 659.8159,496.48486 664.1004,496.48486 664.1004,496.48486 668.38495,496.48486 672.66943,527.51514 672.66943,527.51514 676.954,527.51514 676.954,527.51514 681.23846,527.51514 685.523,527.51514 685.523,558.5454 689.80756,558.5454 694.09204,558.5454 694.09204,558.5454 698.3766,558.5454 698.3766,558.5454 702.6611,558.5454 702.6611,558.5454 702.6611,558.5454 706.9456,589.57574 706.9456,589.57574 711.2301,589.57574 711.2301,589.57574 715.51465,589.57574 715.51465,620.6061 719.79913,620.6061 719.79913,620.6061 724.0837,620.6061 724.0837,651.63635 728.3682,651.63635 728.3682,651.63635 724.0837,682.6666 724.0837,682.6666 724.0837,713.69696 732.6527,713.69696 736.93726,713.69696 745.5063,744.7273 754.0753,775.75757 758.3598,806.78784 758.3598,806.78784 766.9289,806.78784 766.9289,837.8182 762.64435,837.8182 762.64435,837.8182 754.0753,837.8182 758.3598,868.8485 766.9289,868.8485 784.06696,899.8788 792.636,899.8788 796.92053,930.90906 796.92053,930.90906 788.35144,930.90906 788.35144,930.90906 788.35144,930.90906 784.06696,930.90906 766.9289,930.90906 766.9289,930.90906 766.9289,930.90906 762.64435,930.90906 758.3598,930.90906 749.7908,930.90906 732.6527,930.90906 715.51465,930.90906 702.6611,930.90906 702.6611,930.90906 711.2301,930.90906 715.51465,961.9394 724.0837,961.9394 736.93726,992.9697 736.93726,992.9697 736.93726,1024 745.5063,1024 745.5063,1024 745.5063,1024 745.5063,1024 745.5063,1024 736.93726,1024 741.22174,1024 745.5063,1024 754.0753,1024 749.7908,1024 754.0753,1024 762.64435,1024 766.9289,1024 771.2134,1024 775.4979,1024 779.7824,1024 775.4979,992.9697 775.4979,992.9697 766.9289,992.9697 766.9289,992.9697 762.64435,992.9697 766.9289,992.9697 766.9289,992.9697 766.9289,992.9697 771.2134,992.9697 775.4979,1024 788.35144,1024 788.35144,1024 788.35144,992.9697 788.35144,992.9697 792.636,992.9697 792.636,992.9697 796.92053,992.9697 796.92053,992.9697 796.92053,992.9697 801.205,992.9697 805.48956,992.9697 801.205,992.9697 801.205,992.9697 796.92053,961.9394 784.06696,961.9394 818.3431,961.9394 822.6276,961.9394 814.0586,961.9394 801.205,961.9394 801.205,961.9394 805.48956,992.9697 805.48956,961.9394 801.205,992.9697 801.205,992.9697 801.205,992.9697 805.48956,992.9697 801.205,992.9697 805.48956,992.9697 809.77405,992.9697 805.48956,992.9697 801.205,992.9697 788.35144,961.9394 775.4979,961.9394 766.9289,961.9394 758.3598,961.9394 758.3598,961.9394 758.3598,961.9394 758.3598,961.9394 762.64435,961.9394 762.64435,930.90906 766.9289,930.90906 771.2134,930.90906 766.9289,930.90906 762.64435,930.90906 758.3598,930.90906 762.64435,930.90906 766.9289,930.90906 771.2134,930.90906 775.4979,930.90906 771.2134,930.90906 775.4979,930.90906 775.4979,930.90906 779.7824,930.90906 784.06696,930.90906 792.636,930.90906 788.35144,930.90906 788.35144,930.90906 792.636,930.90906 796.92053,930.90906 796.92053,930.90906 796.92053,930.90906 801.205,930.90906 796.92053,930.90906 788.35144,930.90906 788.35144,930.90906 788.35144,930.90906 784.06696,930.90906 779.7824,930.90906 779.7824,930.90906 788.35144,930.90906 788.35144,930.90906 792.636,899.8788 796.92053,899.8788 796.92053,899.8788 805.48956,899.8788 818.3431,899.8788 831.19666,868.8485 844.05023,868.8485 852.61926,868.8485 865.4728,868.8485 869.7573,868.8485 878.32635,868.8485 878.32635,868.8485 886.8954,868.8485 886.8954,868.8485 886.8954,837.8182 886.8954,837.8182 882.6109,868.8485 874.0419,837.8182 856.90375,837.8182 848.3347,837.8182 848.3347,837.8182 856.90375,837.8182 856.90375,806.78784 852.61926,806.78784 852.61926,806.78784 856.90375,806.78784 852.61926,806.78784 852.61926,806.78784 844.05023,806.78784 831.19666,744.7273 822.6276,713.69696 822.6276,651.63635 818.3431,620.6061 809.77405,620.6061 801.205,589.57574 801.205,558.5454 805.48956,527.51514 796.92053,496.48486 788.35144,465.45453 792.636,434.42426 784.06696,403.39392 784.06696,403.39392 771.2134,372.36365 758.3598,341.3333 749.7908,341.3333 758.3598,341.3333 754.0753,310.30304 754.0753,310.30304 745.5063,310.30304 758.3598,310.30304 758.3598,310.30304 758.3598,279.2727 745.5063,279.2727 758.3598,279.2727 762.64435,279.2727 754.0753,248.24243 745.5063,248.24243 754.0753,248.24243 745.5063,248.24243 741.22174,248.24243 745.5063,248.24243 741.22174,248.24243 745.5063,248.24243 745.5063,248.24243 758.3598,248.24243 754.0753,248.24243 741.22174,248.24243 749.7908,248.24243 736.93726,217.2121 728.3682,217.2121 736.93726,217.2121 736.93726,217.2121 745.5063,217.2121 749.7908,217.2121 771.2134,248.24243 771.2134,248.24243 775.4979,248.24243 779.7824,248.24243 779.7824,248.24243 771.2134,248.24243 762.64435,248.24243 766.9289,248.24243 754.0753,248.24243 749.7908,217.2121 736.93726,217.2121 736.93726,217.2121 749.7908,217.2121 758.3598,217.2121 771.2134,217.2121 788.35144,248.24243 805.48956,248.24243 831.19666,279.2727 839.7657,310.30304 856.90375,310.30304 886.8954,341.3333 908.318,372.36365 925.45605,403.39392 951.1632,465.45453 981.1548,496.48486 985.43933,527.51514 998.2929,527.51514 1002.5774,558.5454 1024,589.57574 1024,589.57574 1019.71545,589.57574 1015.43097,589.57574 1002.5774,589.57574 994.00836,589.57574 998.2929,589.57574" stroke="red" stroke-width="4" fill="none" />
                </g>
            </svg>