<?xml version="1.0" encoding="UTF-8" standalone="no"?>
            <!DOCTYPE svg PUBLIC "-//W3C//DTD SVG 1.1//EN" "http://www.w3.org/Graphics/SVG/1.1/DTD/svg11.dtd">
            <svg width="1024" height="1024" viewBox="-50 -50 1124 1124" xmlns="http://www.w3.org/2000/svg">
                <g opacity="0.8">
                    <polyline points="0,699.74005 3.3493905,786.04803 56.78739,784.4348 131.38745,784.4348 131.99643,1016.7405 309.66638,1024 320.62802,1001.0114 324.89087,955.43756 324.2819,787.66125 330.98068,743.7007 345.13947,729.58484 369.19418,731.60144 483.53018,731.60144 544.42816,733.21466 598.32294,729.58484 644.6054,734.8279 701.0883,736.8444 761.6818,736.8444 816.79456,734.8279 879.9762,742.0874 954.1195,729.58484 1023.6955,734.8279 1024,389.5959 1022.3253,0 923.97504,2.0165405 923.97504,431.9433 931.5873,444.44586 937.22034,437.18628 936.6114,678.768 937.52484,733.21466" stroke="red" stroke-width="4" fill="none" />
                </g>
            </svg>