<?xml version="1.0" encoding="UTF-8" standalone="no"?>
            <!DOCTYPE svg PUBLIC "-//W3C//DTD SVG 1.1//EN" "http://www.w3.org/Graphics/SVG/1.1/DTD/svg11.dtd">
            <svg width="1024" height="1024" viewBox="-50 -50 1124 1124" xmlns="http://www.w3.org/2000/svg">
                <g opacity="0.8">
                    <polyline points="876.44727,24.69757 917.8373,0 915.4184,5.699463 914.0745,17.098328 915.4184,15.198486 917.8373,15.198486 924.8252,11.398865 923.7501,3.7996216 929.1255,3.7996216 933.69446,1.8998413 939.33856,1.8998413 943.63885,3.7996216 947.40155,5.699463 949.28296,5.699463 950.6268,7.599243 950.08923,11.398865 948.7454,13.298706 946.05774,18.998169 942.5638,20.89795 940.41364,24.69757 938.801,28.497192 935.57587,32.296875 934.232,37.996277 931.2756,39.89612 929.3942,43.69574 927.5129,47.49536 926.70654,49.395203 925.6315,53.194824 923.7501,53.194824 921.06244,56.994446 918.3748,58.894226 916.7622,60.794067 915.95593,66.49353 914.61206,70.29315 914.88086,75.99255 917.29974,81.69202 925.36273,98.790344 927.2441,104.48981 929.93176,110.18921 931.2756,119.68829 931.00684,131.08722 931.00684,138.68646 930.4693,150.08533 929.93176,157.68463 929.3942,167.18365 929.3942,176.68274 929.1255,186.18182 928.58795,195.68091 928.0504,205.18 927.5129,216.57886 927.5129,224.1781 927.2441,235.57697 926.70654,243.17627 926.169,252.67535 707.9307,279.2727 752.54596,368.56403 750.93335,393.2616 784.7979,372.36365 813.0184,307.76996 836.9386,311.56958 850.6457,315.3692 854.4084,328.6679 867.57794,345.76624 875.3722,349.56586 879.6724,355.26532 885.3165,359.06494 888.27295,364.7644 890.96063,366.66418 892.842,372.36365 896.0672,376.16327 899.56116,378.06305 902.24884,379.9629 904.1302,383.7625 907.8929,387.56213 911.1181,389.46198 912.7307,393.2616 912.99945,395.16144 914.61206,398.96106 912.99945,400.86084 910.84937,404.66046 912.1932,408.46008 916.4934,416.0594 916.4934,419.859 921.06244,423.65863 922.4063,427.45825 923.4814,429.3581 922.1375,427.45825 920.25616,427.45825 917.29974,427.45825 911.1181,431.25787 908.4304,433.1577 905.20526,435.0575 902.7864,438.85712 898.4861,442.6568 895.7984,444.55658 893.3795,446.45642 893.91705,446.45642 894.7234,444.55658 895.7984,442.6568 894.7234,440.75696 894.18585,438.85712 892.842,438.85712 890.4231,438.85712 889.0793,438.85712 886.3916,440.75696 884.779,440.75696 884.51025,440.75696 883.9727,442.6568 882.0913,442.6568 881.55383,442.6568 881.0163,442.6568 881.0163,444.55658 880.7475,444.55658 880.7475,444.55658 880.20996,444.55658 879.6724,446.45642 879.1349,446.45642 879.6724,446.45642 880.20996,444.55658 877.25354,448.3562 876.9848,448.3562 875.9097,452.15582 875.3722,454.05566 875.3722,455.95544 874.56586,455.95544 873.4908,457.8553 871.3407,459.75513 867.0404,463.55475 864.3528,467.35437 863.2777,469.25415 858.7087,474.9536 855.2147,478.75323 853.3333,478.75323 851.1832,480.65308 849.5706,484.4527 848.7643,486.35248 849.3018,486.35248 850.6457,486.35248 851.45197,486.35248 851.1832,486.35248 850.10815,488.25232 850.10815,488.25232 856.8273,482.55286 857.09607,480.65308 856.8273,480.65308 856.8273,478.75323 857.6336,474.9536 860.59,478.75323 863.2777,478.75323 863.2777,476.85345 865.15906,474.9536 865.6966,473.05383 863.2777,473.05383 862.4714,469.25415 858.7087,471.154 857.6336,469.25415 857.09607,471.154 855.2147,471.154 853.3333,473.05383 853.0646,473.05383 851.9895,473.05383 853.0646,473.05383 853.0646,469.25415 850.6457,469.25415 852.52704,469.25415 853.3333,469.25415 853.3333,469.25415 853.0646,467.35437 852.52704,469.25415 853.3333,469.25415 851.1832,469.25415 848.22675,465.45453 847.4205,461.6549 846.3454,459.75513 844.46405,457.8553 841.23883,457.8553 838.2824,455.95544 836.9386,454.05566 837.47614,454.05566 838.81995,454.05566 840.7013,452.15582 842.5827,450.25604 844.46405,450.25604 843.6577,448.3562 845.5391,446.45642 849.5706,444.55658 851.9895,440.75696 851.1832,442.6568 850.6457,440.75696 856.8273,440.75696 868.9218,438.85712 878.3286,435.0575 883.9727,433.1577 889.0793,433.1577 892.842,435.0575 896.60474,435.0575 903.59265,438.85712 907.8929,438.85712 915.4184,438.85712 922.1375,440.75696 929.1255,444.55658 936.1134,446.45642 941.7575,450.25604 946.864,454.05566 950.6268,459.75513 954.3895,463.55475 958.1522,465.45453 961.37744,469.25415 964.8714,473.05383 968.6341,474.9536 975.6221,478.75323 979.38477,486.35248 983.41626,490.15216 988.7916,493.95178 995.77954,499.65118 1000.0798,503.4508 1002.76746,507.2505 1004.11127,512.94995 1006.5302,516.7495 1008.41156,520.5492 1010.2929,526.2486 1013.2493,531.94806 1013.5181,537.64746 1014.05566,543.3469 1015.3995,547.1466 1018.3559,550.94617 1021.0436,560.4453 1021.5811,564.2449 1022.11865,571.8441 1022.9249,577.5436 1022.3874,583.24304 1023.46246,587.04266 1024,592.7421 1022.3874,598.4415 1020.7748,602.2412 1019.16223,606.0408 1019.16223,611.74023 1019.16223,617.4397 1018.89343,619.3395 1019.6997,625.03894 1020.23724,630.7384 1019.6997,636.43787 1018.3559,640.2375 1015.937,644.0371 1015.3995,649.7366 1014.05566,653.53613 1012.7118,659.2356 1010.2929,664.93506 1008.41156,670.6345 1005.7239,676.334 1002.2299,682.0334 999.54224,687.73285 996.5858,693.43225 994.70447,697.23193 994.70447,708.6308 993.36066,716.23004 990.673,721.9295 988.2541,727.6289 985.0289,733.32837 980.72864,739.02783 977.5034,744.7273 975.08453,748.5269 969.97797,754.2263 965.14014,758.026 960.5711,761.82556 955.73334,763.7254 949.28296,769.42487 944.1764,771.3247 939.33856,775.12427 935.0383,777.0241 928.58795,780.8237 924.28766,782.7236 920.25616,786.5232 916.7622,788.423 911.65564,792.22266 905.20526,796.0223 900.90497,797.92206 896.0672,799.8219 892.30444,801.7217 888.54175,801.7217 882.0913,801.7217 877.7911,805.52136 872.147,807.42114 867.0404,807.42114 860.0525,809.321 853.3333,813.1206 846.3454,815.0204 839.895,816.9202 835.5947,816.9202 826.1879,820.71985 822.4252,822.6196 816.7811,824.5195 811.67456,824.5195 805.4929,826.4193 798.505,828.3191 794.2047,828.3191 789.6357,830.21893 784.2604,832.1188 779.1538,834.01855 775.9286,835.91833 771.35956,837.8182 765.98425,837.8182 761.4152,837.8182 754.4273,841.6178 748.7832,845.4174 740.7202,851.1169 734.00104,853.0167 729.432,853.0167 713.5748,854.9165 707.3932,858.7161 702.2866,860.61597 700.674,866.3154 697.4488,872.01483 696.9113,877.7143 693.6861,885.31354 693.14856,892.9128 694.22363,898.61224 692.3423,902.41187 690.9984,906.2115 689.11707,911.91095 686.6982,917.6104 682.9354,921.41003 683.47296,927.10944 682.3979,932.8089 681.86035,938.50836 679.979,946.1076 677.82886,953.70685 678.6352,959.4063 678.6352,967.00555 681.5916,970.8052 682.9354,972.705 687.2357,974.6048 688.042,978.4045 686.6982,982.2041 688.042,987.9035 692.87976,993.60297 696.6425,999.3024 698.52386,1006.9017 696.6425,1016.40076 693.14856,1022.10016 687.50446,1022.10016 680.51654,1024 672.9911,1022.10016 666.0032,1018.30054 660.8966,1014.5009 655.79004,1012.60114 652.0273,1006.9017 644.7706,1001.2022 638.3202,997.4026 632.1386,997.4026 627.03204,995.5028 623.8068,993.60297 614.93756,995.5028 613.32495,995.5028 611.9811,993.60297 610.63727,993.60297 609.29346,993.60297 608.2184,993.60297 606.8745,991.7031 605.5307,991.7031 603.9181,991.7031 601.23047,991.7031 599.8866,989.80334 598.274,989.80334 596.9302,989.80334 595.58636,987.9035 646.652,881.5139 416.58792,919.5102 452.8714,910.0111 425.18845,932.8089 402.88083,932.8089 396.968,932.8089 387.02362,930.90906 383.79843,932.8089 381.91705,932.8089 378.96063,927.10944 371.1664,927.10944 364.98477,925.20966 360.6845,927.10944 360.14697,925.20966 360.14697,923.3098 357.45932,917.6104 354.5029,908.1113 352.35275,902.41187 348.0525,898.61224 343.75223,892.9128 333.0016,892.9128 325.4761,891.013 319.2945,887.2134 313.6504,881.5139 311.76904,873.9147 307.73752,868.2152 306.66248,860.61597 302.09344,856.81635 295.9118,854.9165 294.03046,851.1169 290.26773,849.21704 288.9239,847.31726 285.42993,839.718 280.8609,835.91833 280.8609,828.3191 276.29187,826.4193 271.9916,820.71985 270.11023,815.0204 267.69135,811.22076 263.39108,807.42114 258.82205,805.52136 254.52179,799.8219 250.22153,796.0223 246.19003,792.22266 240.00839,788.423 234.90184,782.7236 229.79527,773.2245 228.18268,765.62524 225.49501,759.9258 223.07611,756.12616 218.77585,754.2263 217.43202,750.42676 216.0882,752.32654 214.20682,752.32654 210.44409,746.6271 211.2504,742.82745 209.90656,742.82745 209.36903,737.12805 212.32545,735.2282 214.74435,729.52875 221.73228,718.1299 224.95747,710.53064 229.25774,702.9314 233.02048,697.23193 236.7832,689.6327 238.93333,685.833 243.77113,678.23376 250.75905,672.5343 258.28452,666.83484 263.92862,664.93506 268.76642,661.13544 274.4105,655.43604 276.29187,657.3358 278.442,657.3358 282.2047,653.53613 287.31128,649.7366 292.95538,645.9369 298.5995,638.33765 303.43726,636.43787 311.76904,628.8386 315.263,625.03894 319.2945,621.2393 323.59476,613.6401 328.43256,607.9407 330.04514,604.141 333.0016,602.2412 333.80786,602.2412 336.7643,598.4415 338.10812,596.54175 338.64566,594.64197 340.52704,588.9425 342.94592,581.34326 344.28976,577.5436 343.75223,571.8441 342.4084,569.94434 341.33334,564.2449 341.33334,558.5454 339.45197,554.74585 333.0016,545.24677 333.80786,541.44714 333.0016,537.64746 329.77637,531.94806 326.81995,530.0482 319.2945,531.94806 314.72546,528.14844 310.4252,526.2486 306.66248,520.5492 302.09344,514.84973 296.7181,511.0501 296.7181,505.35065 292.14908,499.65118 285.96747,495.85156 281.6672,493.95178 276.29187,492.05194 270.64777,488.25232 266.3475,484.4527 262.58478,480.65308 259.3596,478.75323 258.82205,476.85345 259.3596,476.85345 260.7034,476.85345 262.58478,476.85345 263.39108,476.85345 263.92862,474.9536 265.00366,476.85345 265.27243,476.85345 265.27243,478.75323 269.03516,482.55286 271.45407,486.35248 275.2168,490.15216 281.6672,493.95178 284.62363,497.7514 285.96747,499.65118 285.96747,501.55103 285.96747,503.4508 284.0861,501.55103 275.2168,492.05194 269.5727,484.4527 263.92862,478.75323 258.28452,471.154 253.71548,467.35437 249.41522,461.6549 246.19003,457.8553 242.42729,454.05566 237.58951,450.25604 233.28925,444.55658 228.72021,438.85712 224.41995,433.1577 219.85092,427.45825 217.43202,421.7588 216.0882,416.0594 215.01312,408.46008 211.2504,400.86084 207.2189,393.2616 202.3811,387.56213 198.61838,374.26343 195.93071,368.56403 192.43675,364.7644 186.52388,360.96472 183.56746,357.1651 173.35432,359.06494 166.63518,357.1651 160.7223,355.26532 150.24042,359.06494 142.71497,357.1651 134.65196,357.1651 125.51391,355.26532 117.98845,355.26532 108.850395,355.26532 104.281364,355.26532 99.9811,355.26532 94.337006,357.1651 91.649345,357.1651 89.230446,355.26532 84.93018,353.36548 82.511284,347.66608 84.123886,349.56586 85.46772,353.36548 87.88661,355.26532 86.81155,355.26532 89.230446,355.26532 88.15538,349.56586 84.392654,347.66608 82.24252,341.9666 77.404724,343.8664 74.717064,343.8664 71.76063,340.06677 73.37323,340.06677 75.25459,340.06677 77.404724,336.26715 77.94226,336.26715 83.58635,336.26715 83.58635,330.5677 80.36115,324.8683 73.37323,326.76807 67.9979,321.06866 63.42887,319.16882 59.12861,317.26904 50.25932,317.26904 38.97113,319.16882 36.55223,317.26904 32.7895,315.3692 28.758005,315.3692 24.457743,313.46936 22.038845,311.56958 19.351181,307.76996 16.39475,303.97034 17.738583,300.17072 19.619947,294.47125 18.813648,288.7718 20.15748,283.07233 18.276115,279.2727 18.276115,275.47308 18.813648,271.67346 16.932283,269.77368 15.857218,265.974 13.169554,264.07422 12.632021,260.2746 13.975853,256.47498 13.975853,248.87567 14.513386,243.17627 13.707087,237.4768 13.975853,231.77734 13.975853,226.07794 13.707087,220.37848 12.632021,216.57886 11.288189,210.8794 8.062992,207.07977 5.6440945,199.48053 2.687664,193.78107 2.687664,188.0816 3.2251968,176.68274 1.343832,169.0835 0,163.38403 3.2251968,151.98517 3.2251968,146.2857 2.687664,144.38593" stroke="red" stroke-width="4" fill="none" />
                </g>
            </svg>