<?xml version="1.0" encoding="UTF-8" standalone="no"?>
<!DOCTYPE svg PUBLIC "-//W3C//DTD SVG 1.1//EN" "http://www.w3.org/Graphics/SVG/1.1/DTD/svg11.dtd">
<svg width="1024" height="1024" viewBox="-50 -50 1124 1124" xmlns="http://www.w3.org/2000/svg" xmlns:xlink="http://www.w3.org/1999/xlink">
	<g opacity="0.8">
		<polyline points="106,391 106,391 106,451 72,632 42,331 72,391 80,451 114,180 42,60 0,120 80,180 80,0 89,120 63,180 42,120 33,60 33,60 25,60 599,331 607,271 607,271 607,331 616,331 616,331 616,331 616,331 616,331 624,331 624,331 624,331 599,331 599,331 599,331 599,391 599,391 607,391 607,391 616,391 616,391 624,391 624,391 624,391 633,451 633,451 633,451 641,451 641,451 641,451 641,451 650,451 650,451 650,451 650,451 650,512 650,512 658,512 658,512 658,512 658,512 671,512 671,512 671,512 679,512 679,512 679,572 688,572 688,572 688,572 688,572 696,572 696,572 696,572 696,572 696,572 705,572 705,572 705,572 705,572 705,572 713,572 713,632 713,632 713,632 722,632 722,632 722,632 722,632 722,722 722,722 722,722 735,722 735,722 743,783 752,783 760,783 760,843 760,843 769,843 760,843 760,843 752,843 752,903 769,903 777,903 786,903 794,903 794,963 786,963 786,963 786,963 777,963 760,903 760,903 769,903 760,963 760,963 752,963 735,963 713,963 696,963 696,963 705,963 713,963 722,963 735,963 735,1024 735,1024 743,1024 743,1024 743,1024 743,1024 743,1024 735,1024 743,1024 743,1024 752,1024 752,1024 752,1024 760,1024 769,1024 769,1024 777,1024 777,1024 777,963 769,963 769,963 760,963 760,1024 769,1024 760,1024 769,1024 769,1024 777,1024 786,1024 786,1024 786,1024 786,1024 786,1024 786,1024 794,1024 794,1024 794,963 794,963 807,1024 794,963 794,963 794,963 777,963 815,963 824,963 815,963 794,963 794,963 807,963 807,963 794,963 794,963 794,963 807,963 794,963 807,963 807,963 807,963 794,963 786,963 769,963 760,963 760,963 752,963 752,963 752,963 760,963 760,963 769,963 769,963 769,963 760,903 760,963 760,963 760,963 769,963 769,903 769,903 769,903 777,903 777,903 786,903 786,903 786,903 786,903 786,903 794,903 794,963 794,963 794,963 794,963 786,963 786,963 786,963 777,963 777,963 777,963 786,903 786,903 786,903 794,903 794,903 807,903 815,903 824,903 841,903 849,903 858,903 871,903 871,903 879,903 879,903 888,903 888,843 888,843 879,903 871,843 858,843 849,843 849,843 849,843 849,843 849,783 849,783 849,783 849,843 849,843 841,783 832,783 824,722 824,632 815,632 807,632 794,572 794,572 807,572 794,512 786,451 786,451 777,451 777,451 769,391 760,391 752,391 760,391 752,331 752,331 743,331 760,331 752,331 760,331 743,271 760,331 760,271 752,271 743,271 752,271 743,271 743,271 743,271 743,271 743,271 743,271 752,271 752,271 743,271 743,271 735,271 722,271 735,271 735,271 743,271 752,271 769,271 769,271 777,271 777,271 777,271 769,271 760,271 769,271 752,271 752,271 735,271 735,271 752,271 760,271 769,271 786,271 807,271 824,331 832,331 849,331 888,391 905,391 922,451 951,451 977,512 977,512 994,572 994,572 1024,572 1024,572 1015,572 1015,572 994,572 985,572 994,572 " stroke="red" stroke-width="4" fill="none" />
	</g>
</svg>
