<?xml version="1.0" encoding="UTF-8" standalone="no"?>
<!DOCTYPE svg PUBLIC "-//W3C//DTD SVG 1.1//EN" "http://www.w3.org/Graphics/SVG/1.1/DTD/svg11.dtd">
<svg width="1024" height="1024" viewBox="-50 -50 1124 1124" xmlns="http://www.w3.org/2000/svg" xmlns:xlink="http://www.w3.org/1999/xlink">
	<g opacity="0.8">
		<polyline points="875,26 917,0 914,7 913,15 914,15 917,15 924,11 923,3 928,3 933,3 939,3 943,3 947,3 948,7 950,7 950,11 948,11 946,18 942,22 940,22 938,26 935,32 933,36 931,39 929,43 927,47 926,47 925,51 923,55 920,55 917,60 916,60 915,68 914,72 914,75 917,79 924,96 926,104 929,108 931,121 930,129 930,140 929,148 929,157 929,169 929,176 928,186 928,197 927,205 927,214 927,226 926,233 926,243 925,254 707,279 752,368 750,391 784,372 813,307 836,311 850,315 854,330 867,343 875,347 879,355 885,359 888,364 890,368 892,372 896,376 899,376 901,379 904,383 907,387 911,387 912,391 912,397 914,400 912,400 910,404 912,408 916,416 916,419 920,425 922,425 922,429 921,425 919,425 917,429 911,429 908,433 904,436 902,440 898,440 895,444 893,444 893,444 894,444 895,444 894,440 893,440 892,436 890,436 888,440 885,440 884,440 883,440 883,440 881,440 881,440 880,444 880,444 880,444 880,444 879,444 879,444 878,444 879,444 879,444 877,448 876,448 875,452 875,452 875,457 874,457 873,457 870,461 866,465 864,465 862,469 858,473 854,476 853,480 850,480 849,486 848,486 849,486 850,486 851,486 850,486 849,490 849,490 856,480 857,480 856,480 856,480 857,476 860,476 862,476 862,476 865,473 865,473 862,473 862,469 858,469 857,469 857,469 854,473 853,473 852,473 851,473 852,473 852,469 850,469 851,469 853,469 853,469 852,469 851,469 853,469 850,469 847,465 846,461 846,457 844,457 840,457 838,457 836,452 836,452 838,452 840,452 842,448 844,448 843,448 845,444 849,444 851,440 850,440 850,440 856,440 868,436 878,436 883,433 888,433 892,436 896,436 903,436 907,436 914,440 921,440 928,444 935,448 941,448 946,452 950,457 954,461 957,465 961,469 964,473 968,476 975,480 979,486 983,490 988,493 995,497 999,505 1002,505 1003,512 1006,518 1007,522 1010,526 1012,530 1012,537 1013,541 1015,547 1018,550 1021,558 1021,566 1021,569 1022,579 1022,583 1023,587 1024,590 1022,598 1020,602 1018,607 1018,611 1018,619 1018,619 1019,626 1019,630 1019,634 1018,640 1015,644 1015,647 1013,655 1012,659 1010,663 1007,672 1005,676 1002,683 999,687 996,691 994,695 994,708 993,716 990,720 987,729 985,733 980,740 976,744 974,748 969,752 964,756 960,761 955,765 948,769 943,769 939,773 935,777 928,780 924,780 919,784 916,790 911,794 904,797 900,797 896,797 892,801 888,801 881,801 877,805 871,805 866,809 860,809 853,813 846,816 839,816 835,816 826,822 822,822 816,826 811,826 805,826 797,826 793,830 789,830 784,834 779,834 775,834 771,837 765,837 761,837 753,841 748,845 740,851 733,854 729,854 713,854 706,858 701,862 700,866 697,870 696,877 693,887 693,894 693,898 692,902 690,906 688,911 686,915 682,923 683,927 682,934 681,938 679,948 677,955 678,959 678,967 681,972 682,972 686,976 688,980 686,984 688,987 692,995 696,999 698,1008 696,1016 693,1020 687,1024 680,1024 672,1024 665,1020 660,1012 655,1012 651,1008 644,999 638,995 631,995 626,995 623,991 614,995 613,995 611,995 610,995 608,991 608,991 606,991 605,991 603,991 600,991 599,991 598,991 596,987 595,987 646,877 416,919 452,911 424,930 402,934 396,930 387,930 383,930 381,930 378,927 370,927 364,927 360,927 359,927 359,923 357,915 354,906 352,902 348,898 343,894 332,891 324,891 319,887 313,877 311,873 307,870 306,862 301,858 295,854 293,851 289,851 288,845 285,837 280,837 280,830 275,826 271,822 269,813 267,809 263,809 258,805 254,801 249,797 245,794 239,790 234,780 229,773 228,765 225,761 223,756 218,752 217,748 215,752 213,752 210,744 210,744 209,740 209,737 212,733 214,729 221,720 224,712 228,704 232,695 236,691 238,683 243,680 250,672 258,668 263,663 268,659 273,655 275,655 277,655 281,651 287,647 292,647 298,640 303,634 311,626 314,626 319,623 323,615 327,607 330,602 332,602 333,602 336,598 337,594 338,594 340,590 342,583 344,579 343,573 342,569 341,562 341,558 339,554 332,547 333,541 332,537 329,530 326,530 319,530 314,530 310,526 306,522 301,512 296,509 296,505 291,501 285,497 281,493 275,490 270,490 266,486 262,480 259,476 258,476 259,476 260,476 262,476 263,476 263,476 264,476 264,476 264,476 268,480 271,486 275,490 281,493 284,497 285,501 285,501 285,501 283,501 275,490 269,486 263,476 258,473 253,465 249,461 245,457 241,452 237,448 233,444 228,436 224,433 219,429 217,419 215,416 215,408 210,400 206,391 202,387 198,376 195,368 192,364 186,359 183,355 173,359 166,355 160,355 150,359 142,355 134,355 124,355 117,355 108,355 104,355 99,355 94,355 91,355 88,355 84,351 82,347 83,347 85,351 87,355 86,355 88,355 88,351 84,347 81,343 77,343 74,343 71,340 72,340 74,340 77,336 77,336 83,336 83,330 80,322 72,326 67,319 62,319 58,315 49,315 38,319 36,315 32,315 28,315 23,315 21,311 18,307 15,303 17,298 19,294 18,286 19,283 18,279 18,275 18,269 16,269 15,265 13,262 12,258 13,254 13,250 14,243 13,237 13,233 13,226 13,222 12,214 10,208 8,205 5,201 2,193 2,189 2,176 1,169 0,165 2,153 2,144 2,144 " stroke="red" stroke-width="4" fill="none" />
	</g>
</svg>
